<?xml version="1.0"?>
<svg width="50" height="50" xmlns="http://www.w3.org/2000/svg">
 <!-- Created with Method Draw - http://github.com/duopixel/Method-Draw/ -->
 <g>
  <title>background</title>
  <rect fill="none" id="canvas_background" height="52" width="52" y="-1" x="-1"/>
  <g display="none" overflow="visible" y="0" x="0" height="100%" width="100%" id="canvasGrid">
   <rect fill="url(#gridpattern)" stroke-width="0" y="0" x="0" height="100%" width="100%"/>
  </g>
 </g>
 <g>
  <title>Layer 1</title>
  <path stroke="#000" id="svg_2" d="m33.478573,18.808477c0,0 1.496044,-6.185203 0,-8.280483c-1.497818,-2.095117 -2.095196,-3.490813 -5.38871,-4.48988s-2.093473,-0.800094 -4.488224,-0.697916c-2.394793,0.100491 -4.391296,1.395672 -4.391296,2.093432c0,0 -1.496094,0.10049 -2.093477,0.6996c-0.599161,0.599102 -1.596508,3.390477 -1.596508,4.090076s0.498693,5.388632 0.997347,6.386021l-0.593809,0.19915c-0.498692,5.785196 1.994789,6.484791 1.994789,6.484791c0.89694,5.388609 1.795641,3.094351 1.795641,4.489862s-0.898701,0.898746 -0.898701,0.898746s-0.796526,2.193932 -2.791319,2.992188c-1.994747,0.796421 -13.068121,5.085655 -13.968635,5.984402c-0.900424,0.900425 -0.798249,5.088943 -0.798249,5.088943l47.484999,0c0,0 0.103931,-4.188519 -0.796528,-5.088943c-0.902241,-0.900593 -11.975639,-5.187981 -13.970398,-5.984402c-1.99474,-0.798256 -2.791214,-2.992188 -2.791214,-2.992188s-0.89876,0.496943 -0.89876,-0.898746s0.89876,0.898746 1.797403,-4.489862c0,0 2.491722,-0.699594 1.994801,-6.484791l-0.599152,0z" fill-opacity="null" stroke-opacity="null" stroke-width="1.5" fill="#000000"/>
 </g>
</svg>