<?xml version="1.0"?>
<svg width="49.99999999999999" height="49.99999999999999" xmlns="http://www.w3.org/2000/svg">
 <!-- Created with Method Draw - http://github.com/duopixel/Method-Draw/ -->

 <g>
  <title>background</title>
  <rect x="-1" y="-1" width="8.249973" height="8.249973" id="canvas_background" fill="none"/>
  <g id="canvasGrid" display="none">
   <rect id="svg_3" width="100%" height="100%" x="0" y="0" stroke-width="0" fill="url(#gridpattern)"/>
  </g>
 </g>
 <g>
  <title>Layer 1</title>
  <path stroke="#000" id="svg_6" d="m45.873753,0.330965l-41.747468,0c-2.095007,0 -3.795261,1.700305 -3.795261,3.795228l0,41.747602c0,2.094933 1.700254,3.795242 3.795261,3.795242l41.747468,0c2.094906,0 3.795223,-1.70031 3.795223,-3.795242l0,-41.747602c0,-2.094923 -1.700317,-3.795228 -3.795223,-3.795228zm-30.420594,44.890097l-7.590497,0l0,-26.566696l7.590497,0l0,26.566696zm-3.795242,-29.413105c-2.624454,0 -4.74409,-2.123426 -4.74409,-4.744075s2.119636,-4.744055 4.74409,-4.744055s4.74401,2.123518 4.74401,4.744055s-2.119647,4.744075 -4.74401,4.744075zm30.361775,29.413105l-7.59042,0l0,-16.129749c0,-0.759083 -0.764694,-2.001997 -1.303596,-2.301863c-0.711742,-0.400419 -2.393034,-0.434521 -3.159565,-0.064508l-3.127281,1.504843l0,16.991278l-7.590496,0l0,-26.566696l7.590496,0l0,1.165173c3.003925,-1.371946 7.172977,-1.237305 10.000362,0.349178c3.002071,1.681227 5.1805,5.434742 5.1805,8.922596l0,16.129749z" fill-opacity="null" stroke-opacity="null" stroke-width="0.5" fill="#000000"/>
 </g>
</svg>