<?xml version="1.0"?>
<svg width="49.99999999999999" height="49.99999999999999" xmlns="http://www.w3.org/2000/svg">
 <!-- Created with Method Draw - http://github.com/duopixel/Method-Draw/ -->

 <g>
  <title>background</title>
  <rect fill="none" id="canvas_background" height="26.999995" width="26.999995" y="-1" x="-1"/>
  <g display="none" id="canvasGrid">
   <rect fill="url(#gridpattern)" stroke-width="0" y="0" x="0" height="100%" width="100%" id="svg_3"/>
  </g>
 </g>
 <g>
  <title>Layer 1</title>
  <path id="svg_2" d="m24.999987,1.50001c-12.979294,0 -23.499987,10.521313 -23.499987,23.500004c0,12.979334 10.520693,23.499979 23.499987,23.499979c12.978678,0 23.500013,-10.520645 23.500013,-23.499979c0,-12.978691 -10.521336,-23.500004 -23.500013,-23.500004zm2.14711,37.035048l-4.376848,0l0,-4.197311l4.376848,0l0,4.197311zm0,-8.678963l0,1.387175l-4.376848,0l0,-1.709177c0,-5.157654 5.869442,-5.976114 5.869442,-9.641844c0,-1.671482 -1.494492,-2.951902 -3.450993,-2.951902c-2.027416,0 -3.805639,1.493855 -3.805639,1.493855l-2.491846,-3.096353c0,0 2.456095,-2.561528 6.689142,-2.561528c4.020964,0 7.754423,2.489999 7.754423,6.687912c0.001877,5.872538 -6.187681,6.549784 -6.187681,10.391863z" fill-opacity="null" stroke-opacity="null" stroke-width="0.5" stroke="#000" fill="#000000"/>
 </g>
</svg>