<?xml version="1.0"?>
<svg width="49.99999999999999" height="49.99999999999999" xmlns="http://www.w3.org/2000/svg">
 <!-- Created with Method Draw - http://github.com/duopixel/Method-Draw/ -->

 <g>
  <title>background</title>
  <rect x="-1" y="-1" width="8.249973" height="8.249973" id="canvas_background" fill="none"/>
  <g id="canvasGrid" display="none">
   <rect id="svg_3" width="100%" height="100%" x="0" y="0" stroke-width="0" fill="url(#gridpattern)"/>
  </g>
 </g>
 <g>
  <title>Layer 1</title>
  <path id="svg_7" d="m35.645782,7.987879c-2.89904,-2.815906 -6.026064,-5.07191 -8.591112,-5.37936c-0.139643,-0.019779 -0.284136,-0.031705 -0.437302,-0.034904l-16.881426,0c-0.269351,0 -0.53511,0.104713 -0.724821,0.299306c-0.187802,0.189357 -0.299135,0.455504 -0.299135,0.726304l0,42.806256c0,0.269295 0.104575,0.52705 0.299135,0.72337c0.194571,0.192554 0.450612,0.297539 0.724821,0.297539l30.527897,0c0.26936,0 0.526894,-0.103233 0.721443,-0.297539c0.194565,-0.194595 0.302734,-0.452286 0.302734,-0.72337l0,-28.484667c-0.059998,-3.306602 -2.649796,-6.912229 -5.642235,-9.932934zm3.590725,37.388762l-28.479775,0l0,-40.758205l15.862329,0l0,0.003205c0.691652,-0.0416 1.288456,0.641664 1.745607,2.204503c0.415537,1.487812 0.520325,3.427622 0.518635,4.772609c0.00338,0.985771 -0.044786,1.647472 -0.044786,1.647472l-0.081533,1.083778l1.090481,0.011634c0.004854,0 2.520067,0.029967 4.987108,0.590177c2.370499,0.511934 4.224068,1.53263 4.397079,2.687943c0.006546,0.103264 0.008236,0.206232 0.006546,0.302507l0,27.454376l-0.00169,0z" fill-opacity="null" stroke-opacity="null" stroke-width="0.5" stroke="#000" fill="#000000"/>
 </g>
</svg>