<svg width="200" height="200" xmlns="http://www.w3.org/2000/svg">
 <!-- Created with Method Draw - http://github.com/duopixel/Method-Draw/ -->

 <g>
  <title>background</title>
  <rect fill="none" id="canvas_background" height="202" width="202" y="-1" x="-1"/>
  <g display="none" id="canvasGrid">
   <rect fill="url(#gridpattern)" stroke-width="0" y="0" x="0" height="100%" width="100%" id="svg_1"/>
  </g>
 </g>
 <g>
  <title>Layer 1</title>
  <ellipse transform="rotate(90 98.84059143066406,100.24636840820314) " fill="none" stroke-width="10" cx="98.840598" cy="100.246368" id="svg_7" rx="90" ry="90" stroke="#000"/>
  <path id="svg_24" d="m126.954533,53.042649l21.595432,94.624178l-105.795445,-7.246263" fill-opacity="null" stroke-opacity="null" stroke-width="4" stroke="#000" fill="none"/>
  <path id="svg_25" d="m49.710932,47.958242c11.594021,-8.115815 70.43368,-0.579701 70.287188,-0.712605c0.146492,0.132904 21.015731,94.624178 21.305581,94.624178l-105.795445,-7.246263l14.202676,-86.66531z" fill-opacity="null" stroke-opacity="null" stroke-width="4" stroke="#000" fill="none"/>
  <path id="svg_26" d="m133.621096,59.41936c0.146492,0.132904 21.015731,94.624178 21.305581,94.624178l-105.795445,-7.246263" fill-opacity="null" stroke-opacity="null" stroke-width="4" stroke="#000" fill="none"/>
  <line transform="rotate(180 86.81179046630858,126.79759216308594) " stroke="#000" stroke-linecap="null" stroke-linejoin="null" id="svg_27" y2="127.37729" x2="129.129974" y1="126.217888" x1="44.493624" fill-opacity="null" stroke-opacity="null" stroke-width="4" fill="none"/>
  <line stroke-linecap="null" stroke-linejoin="null" id="svg_28" y2="58.972563" x2="112.318648" y1="57.813161" x1="59.855701" fill-opacity="null" stroke-opacity="null" stroke-width="4" stroke="#000" fill="none"/>
  <line stroke="#000" stroke-linecap="null" stroke-linejoin="null" id="svg_30" y2="72.305687" x2="119.85476" y1="71.146285" x1="53.76884" fill-opacity="null" stroke-opacity="null" stroke-width="4" fill="none"/>
  <line stroke="#000" stroke-linecap="null" stroke-linejoin="null" id="svg_31" y2="79.551951" x2="119.275059" y1="78.392549" x1="51.450035" fill-opacity="null" stroke-opacity="null" stroke-width="4" fill="none"/>
  <line stroke="#000" stroke-linecap="null" stroke-linejoin="null" id="svg_32" y2="86.218513" x2="121.304012" y1="85.059111" x1="51.160184" fill-opacity="null" stroke-opacity="null" stroke-width="4" fill="none"/>
  <line stroke="#000" stroke-linecap="null" stroke-linejoin="null" id="svg_33" y2="93.464777" x2="122.463413" y1="92.305375" x1="49.421083" fill-opacity="null" stroke-opacity="null" stroke-width="4" fill="none"/>
  <line stroke="#000" stroke-linecap="null" stroke-linejoin="null" id="svg_34" y2="100.711041" x2="123.332964" y1="99.551638" x1="47.97183" fill-opacity="null" stroke-opacity="null" stroke-width="4" fill="none"/>
  <line stroke="#000" stroke-linecap="null" stroke-linejoin="null" id="svg_35" y2="107.667454" x2="124.202513" y1="106.508051" x1="45.942877" fill-opacity="null" stroke-opacity="null" stroke-width="4" fill="none"/>
  <line stroke="#000" stroke-linecap="null" stroke-linejoin="null" id="svg_36" y2="115.493418" x2="127.680727" y1="114.334016" x1="44.493624" fill-opacity="null" stroke-opacity="null" stroke-width="4" fill="none"/>
 </g>
</svg>