<?xml version="1.0"?>
<svg width="49.99999999999999" height="49.99999999999999" xmlns="http://www.w3.org/2000/svg">
 <!-- Created with Method Draw - http://github.com/duopixel/Method-Draw/ -->

 <g>
  <title>background</title>
  <rect fill="none" id="canvas_background" height="26.999995" width="26.999995" y="-1" x="-1"/>
  <g display="none" id="canvasGrid">
   <rect fill="url(#gridpattern)" stroke-width="0" y="0" x="0" height="100%" width="100%" id="svg_3"/>
  </g>
 </g>
 <g>
  <title>Layer 1</title>
  <path stroke="#000" id="svg_6" d="m36.776451,6.181439c-3.207047,-3.115099 -6.666058,-5.610573 -9.503477,-5.950757c-0.154432,-0.022082 -0.314487,-0.034955 -0.483639,-0.038619l-18.674199,0c-0.297921,0 -0.592154,0.115836 -0.801835,0.331013c-0.207847,0.209634 -0.331017,0.503853 -0.331017,0.803619l0,47.352139c0,0.297905 0.115886,0.582989 0.331017,0.799946c0.2152,0.213284 0.498457,0.329159 0.801835,0.329159l33.769858,0c0.29789,0 0.582924,-0.11404 0.798065,-0.329159c0.215157,-0.215126 0.33466,-0.50021 0.33466,-0.799946l0,-31.50985c-0.066181,-3.657599 -2.931179,-7.646223 -6.241268,-10.987545zm3.972095,41.359119l-31.504344,0l0,-45.086625l17.546926,0l0,0.003693c0.765032,-0.045987 1.425188,0.709823 1.93092,2.438429c0.459654,1.645826 0.575567,3.791843 0.573732,5.279519c0.003693,1.09047 -0.049662,1.82238 -0.049662,1.82238l-0.090094,1.198956l1.206266,0.012871c0.00555,0 2.787848,0.033125 5.516798,0.652865c2.62228,0.566349 4.672722,1.695443 4.86393,2.973506c0.007355,0.11397 0.009125,0.228016 0.007355,0.334661l0,30.369745l-0.001827,0z" fill-opacity="null" stroke-opacity="null" stroke-width="0" fill="#000000"/>
  <path stroke="#000" id="svg_7" d="m29.016819,22.066624c0,0 0.708818,-2.930161 0,-3.922895c-0.709646,-0.992704 -0.992701,-1.65394 -2.552917,-2.127028s-0.992039,-0.379151 -2.126383,-0.330615c-1.13468,0.047398 -2.08053,0.661235 -2.08053,0.991561c0,0 -0.708586,0.04797 -0.99168,0.331764c-0.283733,0.283506 -0.756346,1.605974 -0.756346,1.937475s0.236406,2.552999 0.472612,3.025524l-0.281527,0.094213c-0.236208,2.740871 0.945173,3.072058 0.945173,3.072058c0.424835,2.553299 0.850716,1.46637 0.850716,2.127598s-0.42588,0.425701 -0.42588,0.425701s-0.377316,1.039246 -1.322285,1.417534c-0.945171,0.377449 -6.19131,2.409119 -6.617716,2.834812c-0.426756,0.426817 -0.378342,2.4111 -0.378342,2.4111l22.496492,0c0,0 0.049282,-1.984283 -0.37746,-2.4111c-0.427284,-0.426258 -5.673393,-2.457363 -6.618555,-2.834812c-0.945019,-0.378288 -1.322334,-1.417534 -1.322334,-1.417534s-0.425865,0.23526 -0.425865,-0.425701s0.425865,0.425701 0.851587,-2.127598c0,0 1.180695,-0.331186 0.945013,-3.072058l-0.283773,0z" fill-opacity="null" stroke-opacity="null" stroke-width="0" fill="#000000"/>
 </g>
</svg>