<?xml version="1.0"?>
<svg width="50" height="50" xmlns="http://www.w3.org/2000/svg">
 <!-- Created with Method Draw - http://github.com/duopixel/Method-Draw/ -->
 <g>
  <title>background</title>
  <rect fill="none" id="canvas_background" height="52" width="52" y="-1" x="-1"/>
  <g display="none" overflow="visible" y="0" x="0" height="100%" width="100%" id="canvasGrid">
   <rect fill="url(#gridpattern)" stroke-width="0" y="0" x="0" height="100%" width="100%"/>
  </g>
 </g>
 <g>
  <title>Layer 1</title>
  <path stroke="#000" id="svg_1" d="m25.031023,0.75c-13.40994,0 -24.281023,10.871072 -24.281023,24.281033c0,13.410435 10.871083,24.281044 24.281023,24.281044c13.41044,0 24.281046,-10.870609 24.281046,-24.281044c0,-13.409961 -10.870605,-24.281033 -24.281046,-24.281033zm-2.076677,10.915996l4.043135,0l0,4.300641l-4.043135,0l0,-4.300641zm6.690866,26.098802l-4.446987,0c-1.727501,0 -2.464315,-0.734943 -2.464315,-2.499485l0,-11.468971c0,-0.551132 -0.294067,-0.808641 -0.80867,-0.808641l-1.469934,0l0,-3.9709l4.447443,0c1.728857,0 2.462452,0.77161 2.462452,2.499054l0,11.506046c0,0.51593 0.293634,0.808617 0.808165,0.808617l1.470451,0l0,3.93428l0.001396,0z" stroke-width="1.5" fill="#000000"/>
 </g>
</svg>