<?xml version="1.0"?>
<svg width="49.99999999999999" height="49.99999999999999" xmlns="http://www.w3.org/2000/svg">
 <!-- Created with Method Draw - http://github.com/duopixel/Method-Draw/ -->

 <g>
  <title>background</title>
  <rect fill="none" id="canvas_background" height="26.999995" width="26.999995" y="-1" x="-1"/>
  <g display="none" id="canvasGrid">
   <rect fill="url(#gridpattern)" stroke-width="0" y="0" x="0" height="100%" width="100%" id="svg_3"/>
  </g>
 </g>
 <g>
  <title>Layer 1</title>
  <path stroke="#000" id="svg_5" d="m9.966621,35.627556c-0.009666,-11.78652 -0.019396,-23.573086 -0.029045,-35.359636c8.733547,0.135468 17.504097,-0.320921 26.208019,0.347864c4.244385,1.52758 3.632755,11.03693 3.563816,18.139664c-0.186192,5.356337 2.479897,15.974625 -4.444813,17.570656c-3.452335,0.000202 -3.465897,1.495411 -3.113571,4.200195c0.408966,4.052116 -0.778229,13.129314 -6.449585,7.375858l-15.734821,-12.274574l0,-0.000027zm26.728695,-3.853004c0.014057,-10.594603 -0.102947,-19.633309 -0.682384,-26.613636c-5.147985,-2.374353 -12.104383,-1.218856 -17.92906,-1.254936c-2.289661,1.129192 5.431417,4.878677 7.069014,6.333539c6.216892,3.128181 8.071751,8.817082 6.998142,15.24636c0,2.500988 0,5.001968 0,7.50293c1.146458,-0.001419 3.518295,-0.577385 4.544289,-1.21426l0,0.000004z" fill-opacity="null" stroke-opacity="null" stroke-width="0" fill="#000000"/>
 </g>
</svg>