<?xml version="1.0"?>
<svg width="49.99999999999999" height="49.99999999999999" xmlns="http://www.w3.org/2000/svg">
 <!-- Created with Method Draw - http://github.com/duopixel/Method-Draw/ -->

 <g>
  <title>background</title>
  <rect fill="none" id="canvas_background" height="26.999995" width="26.999995" y="-1" x="-1"/>
  <g display="none" id="canvasGrid">
   <rect fill="url(#gridpattern)" stroke-width="0" y="0" x="0" height="100%" width="100%" id="svg_3"/>
  </g>
 </g>
 <g>
  <title>Layer 1</title>
  <path fill="#000000" stroke-width="0.5" stroke-opacity="null" d="m44.761982,24.189655c-1.926243,-0.333582 -3.931252,-0.553217 -5.559422,-0.612654l-0.286983,-0.009918c0.065517,-0.148554 0.115356,-0.24939 0.13131,-0.264187c0.035374,-0.029755 0.064274,-0.155296 0.067688,-0.277473c0,-0.067629 0.028584,-0.287355 0.07349,-0.577984c0.44104,0.016518 1.026646,0.029751 1.665131,0.034685c2.465405,0.019787 5.044621,0.224628 6.813705,0.54657c1.053665,0.191612 1.401821,0.184982 0.624004,-0.00988c-0.787636,-0.196512 -3.12294,-0.485506 -4.983677,-0.611002c-1.249626,-0.087465 -3.041157,-0.120543 -4.096691,-0.102354c0.030422,-0.188284 0.065834,-0.397961 0.102741,-0.612696c0.149139,-0.830614 0.198971,-1.666233 0.202038,-3.329157c0.003376,-2.579473 -0.131641,-3.289457 -0.947906,-4.995407c-0.332146,-0.696877 -0.70739,-1.288012 -1.161327,-1.823087c0.39613,-1.203876 0.386623,-3.068228 -0.023998,-4.70299c-0.338573,-1.341051 -0.457321,-1.426882 -1.637726,-1.1692c-1.000835,0.21964 -1.802952,0.51851 -2.831161,1.051815c-0.485939,0.252717 -1.156422,0.645645 -1.642359,0.954519c-1.267467,-0.459039 -2.57766,-0.762869 -3.97645,-0.92644c-1.418171,-0.165097 -4.893894,-0.072589 -6.127214,0.161849c-1.206244,0.229642 -2.292236,0.510358 -3.275511,0.843899c-0.490862,-0.312148 -1.202879,-0.733237 -1.711575,-0.997432c-1.032779,-0.53511 -1.834898,-0.83234 -2.839099,-1.051898c-1.177037,-0.259317 -1.29914,-0.171727 -1.63593,1.1692c-0.417035,1.656235 -0.420105,3.551943 -0.007978,4.752542c0.047981,0.137136 0.076881,0.23452 0.088273,0.310511c-1.671589,2.166541 -2.216599,4.590724 -1.854293,7.97437c0.094739,0.88187 0.240529,1.691051 0.444127,2.43248c-1.066628,-0.006603 -2.583819,0.033031 -3.679355,0.105738c-1.864118,0.127146 -4.199431,0.412804 -4.986787,0.609396c-0.77658,0.194777 -0.431514,0.201405 0.623731,0.011497c1.7694,-0.320398 4.350139,-0.528435 6.814008,-0.546597c0.465033,-0.001673 0.899919,-0.011581 1.273605,-0.021463c0.11226,0.391413 0.24021,0.764595 0.38661,1.119652l-0.011387,0.001637c-1.628224,0.057798 -3.631356,0.277388 -5.557918,0.610928c-1.445235,0.249397 -3.578785,0.748158 -3.827282,0.891827c-0.261436,0.150234 -0.047979,0.117207 1.07153,-0.175064c2.041895,-0.531797 4.696462,-0.939684 7.9849,-1.223663l0.367226,-0.032995c0.705847,1.687668 1.793377,2.975718 3.329957,3.979748c0.939906,0.615923 2.446031,1.248493 3.204797,1.347517c0.20853,0.026356 0.814711,0.155205 1.347416,0.28404c0.534237,0.128853 1.578386,0.322014 2.319307,0.432713l0.01753,0c-0.014156,0.00985 -0.027065,0.016432 -0.039991,0.026361c-0.898081,0.480576 -1.482115,1.22863 -1.874886,2.40612c-0.176527,0.054466 -0.396132,0.128727 -0.633865,0.212948c-0.848557,0.297241 -1.178881,0.358391 -2.038528,0.365025c-0.891927,0.006474 -1.103819,-0.033112 -1.636217,-0.290703c-0.774737,-0.371586 -1.496282,-1.055218 -1.977622,-1.871006c-0.803648,-1.364052 -2.192602,-2.328451 -3.350868,-2.328451c-0.989428,0 -1.177338,0.412884 -0.461958,1.015633c1.078,0.906576 1.883186,1.831377 2.213509,2.538134c0.18608,0.396351 0.471807,1.00893 0.636972,1.360729c0.174687,0.374851 0.548689,0.883492 0.904529,1.235229c0.83718,0.822384 1.645768,1.215385 2.852014,1.400349c0.808274,0.122272 1.007255,0.122272 1.961629,-0.003265c0.460428,-0.057777 0.848555,-0.125519 1.196722,-0.209675c0,0.402905 0,0.866901 0,1.411873c0,2.916294 -0.033831,3.854321 -0.146114,4.128353c-0.211893,0.521866 -0.68646,1.058571 -1.148411,1.29966c-0.460438,0.241035 -0.603146,0.506989 -0.409067,0.751381c0.10766,0.132107 0.314337,0.15522 1.008795,0.108994c1.318821,-0.084244 2.250732,-0.58625 2.725296,-1.471359c0.152548,-0.284046 0.187912,-0.855396 0.235893,-3.827881c0.051369,-3.225121 0.073814,-3.535622 0.277428,-3.996338c0.123632,-0.274101 0.301704,-0.571377 0.401052,-0.652313c0.166697,-0.141975 0.178082,0.138763 0.178082,3.996326c-0.001551,4.257286 -0.043377,4.770863 -0.457336,5.589909c-0.092894,0.186615 -0.269119,0.429405 -0.393078,0.54496c-0.216204,0.203098 -0.307854,0.723297 -0.156847,0.880157c0.248516,0.25436 1.494751,-0.145298 2.175072,-0.696918c1.157959,-0.944485 1.296041,-1.725677 1.305588,-7.366692l0.004625,-3.30928l0.35153,0.034588l0.35124,0.033039l0.057526,4.32827c0.06579,4.873219 0.075632,4.94413 0.880836,5.885479c0.457016,0.531742 0.917452,0.825642 1.666349,1.055199c1.002638,0.310467 1.304056,-0.16843 0.630522,-0.999111c-0.732931,-0.903252 -0.768316,-1.24839 -0.728308,-6.595551c0.027365,-3.428215 0.027365,-3.428215 0.242037,-3.228374c0.452393,0.422703 0.539167,1.116272 0.539167,4.331528c0,3.993008 0.110718,4.37273 1.480576,5.069752c0.639723,0.321945 0.819336,0.361534 1.639309,0.364906c0.872553,0.003242 0.925459,-0.00996 0.957445,-0.244415c0.027363,-0.189919 -0.080261,-0.318691 -0.48749,-0.574722c-0.534227,-0.33847 -0.904846,-0.771179 -1.137384,-1.316086c-0.088238,-0.209721 -0.147621,-1.583698 -0.187582,-4.412445c-0.057827,-3.951786 -0.070765,-4.131748 -0.309431,-4.75104c-0.322611,-0.832306 -0.815014,-1.489531 -1.43906,-1.925518c-0.161776,-0.108936 -0.323887,-0.19972 -0.534262,-0.267509c0.25836,-0.026394 0.508753,-0.054476 0.751099,-0.090834c2.521364,-0.345098 3.854353,-0.632444 4.924059,-1.058439c2.263348,-0.89677 3.793449,-2.386229 4.622955,-4.498383c0.073494,-0.188164 0.147293,-0.366547 0.210014,-0.510271l0.638542,0.054462c3.289639,0.285713 5.94421,0.693602 7.986092,1.227034c1.119495,0.292265 1.332958,0.326939 1.071503,0.173365c-0.243855,-0.140419 -2.377087,-0.637428 -3.820789,-0.886768l-0.000004,-0.000004zm-9.646294,-0.051178c-0.373707,0.845535 -1.416332,1.932062 -2.258736,2.358175c-0.830742,0.422689 -2.133251,0.74473 -3.608936,0.898287c-1.008806,0.105677 -6.635614,0.137056 -7.564461,0.042961c-3.074644,-0.310434 -4.797596,-0.919802 -6.067836,-2.140192c-1.203192,-1.159231 -1.764477,-2.733049 -1.666669,-4.670074c0.062421,-1.212086 0.346603,-1.973383 1.089043,-2.8981c0.675409,-0.842266 1.385883,-1.362415 2.223389,-1.626652c0.700941,-0.221279 2.851688,-0.241076 5.74367,-0.049465c1.27854,0.084148 2.335615,0.084148 3.612305,0c3.025162,-0.196563 5.044603,-0.175091 5.790457,0.062706c1.172707,0.373178 2.240898,1.377245 2.882492,2.714844c0.288776,0.597786 0.344746,0.85211 0.386562,1.775188c0.057816,1.27157 -0.155636,2.622396 -0.561279,3.532322zm-15.25411,-5.459511c-1.721106,-0.310352 -2.704367,2.723177 -1.384306,4.272182c0.627108,0.734848 1.183788,0.855368 1.879793,0.409536c0.64464,-0.414486 0.994339,-1.188999 0.994339,-2.193066c0,-1.33917 -0.591743,-2.323479 -1.489826,-2.488655l0,0.000002zm10.446598,0.181686c-1.721102,-0.310436 -2.705931,2.719814 -1.385895,4.270496c0.629002,0.734842 1.183847,0.857059 1.881689,0.407913c0.643408,-0.412888 0.994625,-1.189013 0.994625,-2.193129c0,-1.334276 -0.592022,-2.321795 -1.490419,-2.485281zm-4.629095,5.964737c-0.036615,0.122225 -0.216522,0.303867 -0.397663,0.401236c-0.458881,0.242805 -0.789227,0.158628 -1.273617,-0.295464c-0.299875,-0.279131 -0.436419,-0.426113 -0.527775,-0.133747c-0.084881,0.270733 0.449345,0.814034 0.861481,0.980837c0.378283,0.155241 0.64958,0.160151 1.06016,-0.016495c0.407539,-0.17507 0.763659,-0.645693 0.763659,-0.9512c0,-0.284073 -0.396441,-0.270834 -0.486242,0.014833l-0.000002,0zm-0.508385,-0.949512c0.261408,-0.237804 0.320772,-0.726633 0.070719,-0.985861s-0.759062,-0.219576 -0.957724,0.070974c-0.230991,0.340265 -0.107344,0.599504 0.057816,0.875237c0.256495,0.204832 0.601595,0.246063 0.829189,0.03965z" id="svg_4" stroke="#000"/>
 </g>
</svg>